<svg width="64" height="64" viewBox="0 0 32 32" fill="none" xmlns="http://www.w3.org/2000/svg">
  <defs>
    <linearGradient id="mainGradient" x1="0%" y1="0%" x2="100%" y2="100%">
      <stop offset="0%" style="stop-color:#6366f1;stop-opacity:1" />
      <stop offset="100%" style="stop-color:#4f46e5;stop-opacity:1" />
    </linearGradient>
    <linearGradient id="accentGradient" x1="0%" y1="0%" x2="100%" y2="100%">
      <stop offset="0%" style="stop-color:#818cf8;stop-opacity:1" />
      <stop offset="100%" style="stop-color:#6366f1;stop-opacity:1" />
    </linearGradient>
    <filter id="glow">
      <feGaussianBlur stdDeviation="0.8" result="coloredBlur"/>
      <feMerge> 
        <feMergeNode in="coloredBlur"/>
        <feMergeNode in="SourceGraphic"/>
      </feMerge>
    </filter>
  </defs>
  
  <!-- 背景圆形 -->
  <circle cx="16" cy="16" r="15" fill="url(#mainGradient)" filter="url(#glow)"/>
  
  <!-- 游戏控制器基础形状 -->
  <path d="M8 12 C6 12, 5 13, 5 15 L5 19 C5 21, 6 22, 8 22 L24 22 C26 22, 27 21, 27 19 L27 15 C27 13, 26 12, 24 12 Z" fill="white" opacity="0.95"/>
  
  <!-- 区块链方块元素 -->
  <rect x="9" y="8" width="3" height="3" fill="url(#accentGradient)" rx="0.5"/>
  <rect x="14" y="8" width="3" height="3" fill="url(#accentGradient)" rx="0.5"/>
  <rect x="19" y="8" width="3" height="3" fill="url(#accentGradient)" rx="0.5"/>
  
  <!-- 连接线表示区块链 -->
  <line x1="12" y1="9.5" x2="14" y2="9.5" stroke="url(#accentGradient)" stroke-width="1.8" opacity="0.9"/>
  <line x1="17" y1="9.5" x2="19" y2="9.5" stroke="url(#accentGradient)" stroke-width="1.8" opacity="0.9"/>
  
  <!-- 控制器左侧 -->
  <circle cx="11" cy="16" r="2.2" fill="url(#mainGradient)"/>
  <!-- 控制器右侧 -->
  <circle cx="21" cy="16" r="2.2" fill="url(#mainGradient)"/>
  
  <!-- 方向键 -->
  <path d="M9.2 15.8 L9.8 15.2 L10.4 15.8 L9.8 16.4 Z" fill="white"/>
  <path d="M10.6 14.4 L11.2 14.4 L11.2 15 L10.6 15 Z" fill="white"/>
  
  <!-- 动作按钮 -->
  <circle cx="20" cy="15" r="0.9" fill="white"/>
  <circle cx="22" cy="15" r="0.9" fill="white"/>
  <circle cx="21" cy="14" r="0.9" fill="white"/>
  <circle cx="21" cy="16" r="0.9" fill="white"/>
  
  <!-- 中央连接 -->
  <rect x="13" y="15" width="6" height="2" fill="url(#accentGradient)" rx="1"/>
  
  <!-- 装饰光点 -->
  <circle cx="24" cy="8" r="1.2" fill="white" opacity="0.7"/>
  <circle cx="26" cy="12" r="1" fill="white" opacity="0.5"/>
  <circle cx="6" cy="10" r="1" fill="white" opacity="0.5"/>
</svg>